<svg fill="none" height="24" viewBox="0 0 36 24" width="36" xmlns="http://www.w3.org/2000/svg" xmlns:xlink="http://www.w3.org/1999/xlink"><mask id="a" height="16" maskUnits="userSpaceOnUse" width="18" x="0" y="8"><path d="m0 8.159h17.9844v15.841h-17.9844z" fill="#fff"/></mask><mask id="b" height="16" maskUnits="userSpaceOnUse" width="19" x="17" y="0"><path d="m17.7893 0h18.0149v15.7663h-18.0149z" fill="#fff"/></mask><g mask="url(#a)"><path d="m12.0564 19.4032v2.1723l-9.86953-4.571v-1.7624l9.86953-4.5709v2.1731l-7.46405 3.2581v.0411zm5.861-11.14588h-16.50468c-.779474 0-1.41113309.62938-1.41113309 1.40657v12.91891c0 .7772.63165909 1.4066 1.41113309 1.4066h11.92308z" fill="#333"/></g><g mask="url(#b)"><path d="m33.6211 8.81581-9.8688 4.50919v-2.173l7.6279-3.25816v-.04114l-7.6279-3.25888v-2.17232l9.8688 4.50847zm-11.1215-8.80894354-4.5824 15.73203354h16.478c.7795 0 1.4112-.6294 1.4112-1.4066v-12.91887c0-.776428-.6317-1.40656354-1.4112-1.40656354z" fill="#fff"/></g></svg>